<?xml version="1.0" standalone="no"?>
<!DOCTYPE svg PUBLIC "-//W3C//DTD SVG 20010904//EN"
 "http://www.w3.org/TR/2001/REC-SVG-20010904/DTD/svg10.dtd">
<svg version="1.0" xmlns="http://www.w3.org/2000/svg"
 width="544.000000pt" height="459.000000pt" viewBox="0 0 544.000000 459.000000"
 preserveAspectRatio="xMidYMid meet">

<g transform="translate(0.000000,459.000000) scale(0.100000,-0.100000)"
fill="#000000" stroke="none">
<path d="M3403 3393 c-3 -10 -14 -29 -24 -43 -9 -14 -23 -62 -29 -105 -12 -83
-37 -275 -47 -358 l-6 -48 -41 6 c-22 4 -49 9 -58 11 -14 4 -18 -1 -18 -18 0
-13 -4 -28 -8 -34 -10 -16 -185 -164 -194 -164 -4 0 -10 10 -13 23 -4 12 -12
36 -20 52 -7 17 -23 55 -36 85 -43 108 -81 138 -219 175 -36 10 -92 25 -125
35 -216 65 -201 76 -311 -217 -40 -104 -41 -142 -5 -159 44 -22 76 -1 101 69
12 34 28 76 35 92 7 17 18 46 26 65 20 55 25 59 70 49 22 -5 53 -15 68 -22
l29 -12 -27 -55 c-14 -30 -39 -84 -55 -120 -61 -139 -150 -317 -181 -365 -18
-27 -59 -95 -91 -150 -32 -55 -63 -103 -69 -107 -5 -4 -89 -33 -185 -64 -106
-34 -182 -65 -192 -76 -11 -13 -18 -36 -18 -63 0 -35 5 -48 26 -64 28 -22 92
-29 110 -12 5 5 92 37 193 72 102 34 192 69 202 78 18 17 60 82 95 146 42 78
59 105 66 105 4 0 29 -19 56 -42 26 -24 76 -67 110 -97 34 -30 62 -57 62 -60
0 -8 -46 -62 -205 -238 -48 -54 -64 -81 -65 -109 0 -29 33 -69 69 -83 41 -18
74 2 152 90 35 39 71 79 79 88 80 87 185 210 193 228 20 44 1 85 -66 140 -34
29 -75 64 -92 79 -16 14 -40 34 -53 44 l-23 19 44 93 c24 51 61 130 83 176 38
80 50 95 59 70 59 -170 82 -182 180 -92 27 25 89 78 137 117 79 65 88 75 88
106 0 21 -7 39 -17 47 -17 13 -17 13 2 14 41 0 48 -13 36 -69 -18 -84 -15
-111 12 -111 12 0 31 -3 43 -6 19 -5 22 1 33 81 l13 87 47 -7 c25 -3 53 -8 62
-11 12 -3 18 3 21 25 4 29 3 30 -55 40 -33 6 -62 12 -64 14 -2 2 1 35 7 73 6
38 15 107 20 154 5 47 15 114 21 149 17 95 -14 249 -38 184z"/>
<path d="M2867 3275 c-133 -49 -159 -223 -45 -305 83 -60 213 -31 255 57 47
98 5 206 -95 246 -50 20 -64 20 -115 2z"/>
</g>
</svg>
